# xmcd
#
# Track frame offsets:
#	150
#	17440
#	34049
#	50255
#	68814
#	84869
#	103347
#	116522
#	130364
#	144130
#	163558
#	180805
#	196774
#	217336
#	234135
#
# Disc length: 3336 seconds
#
# Revision: 2
# Processed by: cddbd v1.5.2PL0 Copyright (c) Steve Scherf et al.
# Submitted via: audiograbber 1.83.01
#
DISCID=b90d060f
DTITLE=Wilson, Gretchen - CB90298
DYEAR=1900
DGENRE=
TTITLE0=Redneck Woman
TTITLE1=One Bud Wiser
TTITLE2=Here For The Party
TTITLE3=He Ain't Even Cold Yet
TTITLE4=Homewrecker
TTITLE5=Rebel Child
TTITLE6=I Don't Feel Like Loving You Today
TTITLE7=California Girls
TTITLE8=Skoal Ring
TTITLE9=When I Think About Cheatin'
TTITLE10=Not Bad For A Bartender
TTITLE11=Politically Uncorrect
TTITLE12=Raining On Me
TTITLE13=All Jacked Up
TTITLE14=Full Time Job
EXTD=
EXTT0=
EXTT1=
EXTT2=
EXTT3=
EXTT4=
EXTT5=
EXTT6=
EXTT7=
EXTT8=
EXTT9=
EXTT10=
EXTT11=
EXTT12=
EXTT13=
EXTT14=
PLAYORDER=
